<mxfile host="app.diagrams.net" agent="Mozilla/5.0 (X11; Linux x86_64; rv:132.0) Gecko/20100101 Firefox/132.0" version="24.8.4">
  <diagram id="Ht1M8jgEwFfnCIfOTk4-" name="Page-1">
    <mxGraphModel dx="1434" dy="791" grid="1" gridSize="10" guides="1" tooltips="1" connect="1" arrows="1" fold="1" page="1" pageScale="1" pageWidth="1169" pageHeight="827" math="0" shadow="0">
      <root>
        <mxCell id="0" />
        <mxCell id="1" parent="0" />
        <mxCell id="G3w2SAiwnS9QcViZ7NFC-44" value="Legend" style="rounded=0;whiteSpace=wrap;html=1;labelPosition=center;verticalLabelPosition=middle;align=center;verticalAlign=top;fontStyle=1" parent="1" vertex="1">
          <mxGeometry x="1310" y="50" width="90" height="190" as="geometry" />
        </mxCell>
        <mxCell id="vO1gcMTNo6GiHxiWaRdK-106" value="" style="rounded=1;whiteSpace=wrap;html=1;" parent="1" vertex="1">
          <mxGeometry x="702" y="718" width="282" height="90.5" as="geometry" />
        </mxCell>
        <mxCell id="vO1gcMTNo6GiHxiWaRdK-63" value="" style="rounded=1;whiteSpace=wrap;html=1;" parent="1" vertex="1">
          <mxGeometry x="168" y="408.25" width="900" height="253" as="geometry" />
        </mxCell>
        <mxCell id="3lN89p1fmJUmsOhZlJN3-14" value="" style="endArrow=none;dashed=1;html=1;dashPattern=1 3;strokeWidth=2;rounded=0;opacity=50;" parent="1" edge="1">
          <mxGeometry width="50" height="50" relative="1" as="geometry">
            <mxPoint x="685" y="848" as="sourcePoint" />
            <mxPoint x="685" y="398" as="targetPoint" />
          </mxGeometry>
        </mxCell>
        <mxCell id="vO1gcMTNo6GiHxiWaRdK-83" style="edgeStyle=orthogonalEdgeStyle;curved=1;rounded=0;orthogonalLoop=1;jettySize=auto;html=1;entryX=0.5;entryY=0;entryDx=0;entryDy=0;entryPerimeter=0;" parent="1" source="hRW7IxMo_JtO7I1gNGdK-1" target="vO1gcMTNo6GiHxiWaRdK-57" edge="1">
          <mxGeometry relative="1" as="geometry">
            <mxPoint x="425" y="200" as="sourcePoint" />
            <mxPoint x="283" y="597" as="targetPoint" />
          </mxGeometry>
        </mxCell>
        <mxCell id="vO1gcMTNo6GiHxiWaRdK-94" value="" style="rounded=1;whiteSpace=wrap;html=1;" parent="1" vertex="1">
          <mxGeometry x="158" y="718.5" width="352.69" height="90" as="geometry" />
        </mxCell>
        <mxCell id="vO1gcMTNo6GiHxiWaRdK-53" value="" style="sketch=0;outlineConnect=0;fontColor=#232F3E;gradientColor=none;fillColor=#232F3D;strokeColor=none;dashed=0;verticalLabelPosition=bottom;verticalAlign=top;align=center;html=1;fontSize=12;fontStyle=0;aspect=fixed;pointerEvents=1;shape=mxgraph.aws4.authenticated_user;" parent="1" vertex="1">
          <mxGeometry x="393.19000000000005" y="64" width="78" height="78" as="geometry" />
        </mxCell>
        <mxCell id="vO1gcMTNo6GiHxiWaRdK-55" value="Cognito" style="sketch=0;points=[[0,0,0],[0.25,0,0],[0.5,0,0],[0.75,0,0],[1,0,0],[0,1,0],[0.25,1,0],[0.5,1,0],[0.75,1,0],[1,1,0],[0,0.25,0],[0,0.5,0],[0,0.75,0],[1,0.25,0],[1,0.5,0],[1,0.75,0]];outlineConnect=0;fontColor=#232F3E;fillColor=#DD344C;strokeColor=#ffffff;dashed=0;verticalLabelPosition=top;verticalAlign=bottom;align=center;html=1;fontSize=12;fontStyle=0;aspect=fixed;shape=mxgraph.aws4.resourceIcon;resIcon=mxgraph.aws4.cognito;labelPosition=center;" parent="1" vertex="1">
          <mxGeometry x="170" y="79" width="63" height="63" as="geometry" />
        </mxCell>
        <mxCell id="vO1gcMTNo6GiHxiWaRdK-77" value="" style="edgeStyle=orthogonalEdgeStyle;curved=1;rounded=0;orthogonalLoop=1;jettySize=auto;html=1;exitX=0.5;exitY=1;exitDx=0;exitDy=0;exitPerimeter=0;" parent="1" source="vO1gcMTNo6GiHxiWaRdK-57" target="vO1gcMTNo6GiHxiWaRdK-66" edge="1">
          <mxGeometry x="0.2385" relative="1" as="geometry">
            <mxPoint as="offset" />
            <Array as="points">
              <mxPoint x="402" y="353" />
            </Array>
          </mxGeometry>
        </mxCell>
        <mxCell id="vO1gcMTNo6GiHxiWaRdK-78" value="" style="edgeStyle=orthogonalEdgeStyle;curved=1;rounded=0;orthogonalLoop=1;jettySize=auto;html=1;exitX=0.855;exitY=0.855;exitDx=0;exitDy=0;exitPerimeter=0;" parent="1" source="vO1gcMTNo6GiHxiWaRdK-57" target="vO1gcMTNo6GiHxiWaRdK-65" edge="1">
          <mxGeometry x="0.5825" y="-7" relative="1" as="geometry">
            <mxPoint as="offset" />
          </mxGeometry>
        </mxCell>
        <mxCell id="vO1gcMTNo6GiHxiWaRdK-80" value="" style="edgeStyle=orthogonalEdgeStyle;curved=1;rounded=0;orthogonalLoop=1;jettySize=auto;html=1;exitX=0.145;exitY=0.855;exitDx=0;exitDy=0;exitPerimeter=0;" parent="1" source="vO1gcMTNo6GiHxiWaRdK-57" target="vO1gcMTNo6GiHxiWaRdK-64" edge="1">
          <mxGeometry x="0.5222" y="3" relative="1" as="geometry">
            <mxPoint as="offset" />
          </mxGeometry>
        </mxCell>
        <UserObject label="*.natuurdata.inbo.be" link="*.biodiversiteitsportaal.be" id="vO1gcMTNo6GiHxiWaRdK-57">
          <mxCell style="outlineConnect=0;dashed=0;verticalLabelPosition=top;verticalAlign=bottom;align=right;html=1;shape=mxgraph.aws3.application_load_balancer;fillColor=#F58534;gradientColor=none;labelPosition=left;" parent="1" vertex="1">
            <mxGeometry x="398" y="281.25" width="69" height="72" as="geometry" />
          </mxCell>
        </UserObject>
        <mxCell id="vO1gcMTNo6GiHxiWaRdK-58" value="Branding + Home page" style="sketch=0;outlineConnect=0;fontColor=#232F3E;gradientColor=none;fillColor=#7AA116;strokeColor=none;dashed=0;verticalLabelPosition=bottom;verticalAlign=top;align=center;html=1;fontSize=12;fontStyle=0;aspect=fixed;pointerEvents=1;shape=mxgraph.aws4.bucket;" parent="1" vertex="1">
          <mxGeometry x="598.3100000000001" y="180.75" width="57.69" height="60" as="geometry" />
        </mxCell>
        <mxCell id="vO1gcMTNo6GiHxiWaRdK-60" value="RDS Aurora (Mysql)" style="sketch=0;points=[[0,0,0],[0.25,0,0],[0.5,0,0],[0.75,0,0],[1,0,0],[0,1,0],[0.25,1,0],[0.5,1,0],[0.75,1,0],[1,1,0],[0,0.25,0],[0,0.5,0],[0,0.75,0],[1,0.25,0],[1,0.5,0],[1,0.75,0]];outlineConnect=0;fontColor=#232F3E;fillColor=#C925D1;strokeColor=#ffffff;dashed=0;verticalLabelPosition=bottom;verticalAlign=top;align=center;html=1;fontSize=12;fontStyle=0;aspect=fixed;shape=mxgraph.aws4.resourceIcon;resIcon=mxgraph.aws4.rds;horizontal=1;" parent="1" vertex="1">
          <mxGeometry x="129" y="797.5" width="41" height="41" as="geometry" />
        </mxCell>
        <mxCell id="vO1gcMTNo6GiHxiWaRdK-61" value="RDS Aurora (PostGIS)" style="sketch=0;points=[[0,0,0],[0.25,0,0],[0.5,0,0],[0.75,0,0],[1,0,0],[0,1,0],[0.25,1,0],[0.5,1,0],[0.75,1,0],[1,1,0],[0,0.25,0],[0,0.5,0],[0,0.75,0],[1,0.25,0],[1,0.5,0],[1,0.75,0]];outlineConnect=0;fontColor=#232F3E;fillColor=#C925D1;strokeColor=#ffffff;dashed=0;verticalLabelPosition=bottom;verticalAlign=top;align=center;html=1;fontSize=12;fontStyle=0;aspect=fixed;shape=mxgraph.aws4.resourceIcon;resIcon=mxgraph.aws4.rds;" parent="1" vertex="1">
          <mxGeometry x="683.69" y="782" width="41" height="41" as="geometry" />
        </mxCell>
        <mxCell id="vO1gcMTNo6GiHxiWaRdK-62" value="ECS" style="sketch=0;points=[[0,0,0],[0.25,0,0],[0.5,0,0],[0.75,0,0],[1,0,0],[0,1,0],[0.25,1,0],[0.5,1,0],[0.75,1,0],[1,1,0],[0,0.25,0],[0,0.5,0],[0,0.75,0],[1,0.25,0],[1,0.5,0],[1,0.75,0]];outlineConnect=0;fontColor=#232F3E;fillColor=#ED7100;strokeColor=#ffffff;dashed=0;verticalLabelPosition=middle;verticalAlign=middle;align=right;html=1;fontSize=12;fontStyle=0;aspect=fixed;shape=mxgraph.aws4.resourceIcon;resIcon=mxgraph.aws4.ecs;labelPosition=left;spacingRight=6;" parent="1" vertex="1">
          <mxGeometry x="157" y="619.25" width="51" height="51" as="geometry" />
        </mxCell>
        <mxCell id="vO1gcMTNo6GiHxiWaRdK-64" value="collectory" style="sketch=0;outlineConnect=0;fontColor=#232F3E;gradientColor=none;fillColor=#ED7100;strokeColor=none;dashed=0;verticalLabelPosition=bottom;verticalAlign=top;align=center;html=1;fontSize=12;fontStyle=0;aspect=fixed;pointerEvents=1;shape=mxgraph.aws4.container_1;" parent="1" vertex="1">
          <mxGeometry x="300.69" y="428.25" width="48" height="31" as="geometry" />
        </mxCell>
        <mxCell id="_YDqgh8J1XpDga5V4mkn-3" value="" style="edgeStyle=orthogonalEdgeStyle;rounded=0;orthogonalLoop=1;jettySize=auto;html=1;" parent="1" source="vO1gcMTNo6GiHxiWaRdK-65" target="vO1gcMTNo6GiHxiWaRdK-68" edge="1">
          <mxGeometry relative="1" as="geometry" />
        </mxCell>
        <mxCell id="vO1gcMTNo6GiHxiWaRdK-65" value="biocache-hub" style="sketch=0;outlineConnect=0;fontColor=#232F3E;gradientColor=none;fillColor=#ED7100;strokeColor=none;dashed=0;verticalLabelPosition=bottom;verticalAlign=top;align=center;html=1;fontSize=12;fontStyle=0;aspect=fixed;pointerEvents=1;shape=mxgraph.aws4.container_1;" parent="1" vertex="1">
          <mxGeometry x="540.6899999999999" y="428.25" width="48" height="31" as="geometry" />
        </mxCell>
        <mxCell id="vO1gcMTNo6GiHxiWaRdK-66" value="bie-hub" style="sketch=0;outlineConnect=0;fontColor=#232F3E;gradientColor=none;fillColor=#ED7100;strokeColor=none;dashed=0;verticalLabelPosition=bottom;verticalAlign=top;align=center;html=1;fontSize=12;fontStyle=0;aspect=fixed;pointerEvents=1;shape=mxgraph.aws4.container_1;" parent="1" vertex="1">
          <mxGeometry x="377.99999999999994" y="428" width="48" height="31" as="geometry" />
        </mxCell>
        <mxCell id="vO1gcMTNo6GiHxiWaRdK-67" value="bie-index" style="sketch=0;outlineConnect=0;fontColor=#232F3E;gradientColor=none;fillColor=#ED7100;strokeColor=none;dashed=0;verticalLabelPosition=bottom;verticalAlign=top;align=center;html=1;fontSize=12;fontStyle=0;aspect=fixed;pointerEvents=1;shape=mxgraph.aws4.container_1;" parent="1" vertex="1">
          <mxGeometry x="377.99999999999994" y="499.5" width="48" height="31" as="geometry" />
        </mxCell>
        <mxCell id="vO1gcMTNo6GiHxiWaRdK-68" value="biocache-service" style="sketch=0;outlineConnect=0;fontColor=#232F3E;gradientColor=none;fillColor=#ED7100;strokeColor=none;dashed=0;verticalLabelPosition=bottom;verticalAlign=top;align=center;html=1;fontSize=12;fontStyle=0;aspect=fixed;pointerEvents=1;shape=mxgraph.aws4.container_1;" parent="1" vertex="1">
          <mxGeometry x="540.6899999999999" y="498.25" width="48" height="31" as="geometry" />
        </mxCell>
        <mxCell id="vO1gcMTNo6GiHxiWaRdK-70" value="apikey" style="sketch=0;outlineConnect=0;fontColor=#232F3E;gradientColor=none;fillColor=#ED7100;strokeColor=none;dashed=0;verticalLabelPosition=bottom;verticalAlign=top;align=center;html=1;fontSize=12;fontStyle=0;aspect=fixed;pointerEvents=1;shape=mxgraph.aws4.container_1;" parent="1" vertex="1">
          <mxGeometry x="208" y="498.25" width="48" height="31" as="geometry" />
        </mxCell>
        <mxCell id="vO1gcMTNo6GiHxiWaRdK-72" value="spatial-hub" style="sketch=0;outlineConnect=0;fontColor=#232F3E;gradientColor=none;fillColor=#ED7100;strokeColor=none;dashed=0;verticalLabelPosition=bottom;verticalAlign=top;align=center;html=1;fontSize=12;fontStyle=0;aspect=fixed;pointerEvents=1;shape=mxgraph.aws4.container_1;" parent="1" vertex="1">
          <mxGeometry x="724.6899999999999" y="428.25" width="48" height="31" as="geometry" />
        </mxCell>
        <mxCell id="vO1gcMTNo6GiHxiWaRdK-73" value="spatial-service" style="sketch=0;outlineConnect=0;fontColor=#232F3E;gradientColor=none;fillColor=#ED7100;strokeColor=none;dashed=0;verticalLabelPosition=bottom;verticalAlign=top;align=center;html=1;fontSize=12;fontStyle=0;aspect=fixed;pointerEvents=1;shape=mxgraph.aws4.container_1;" parent="1" vertex="1">
          <mxGeometry x="724.6899999999999" y="498.25" width="48" height="31" as="geometry" />
        </mxCell>
        <mxCell id="vO1gcMTNo6GiHxiWaRdK-74" value="species-list" style="sketch=0;outlineConnect=0;fontColor=#232F3E;gradientColor=none;fillColor=#ED7100;strokeColor=none;dashed=0;verticalLabelPosition=bottom;verticalAlign=top;align=center;html=1;fontSize=12;fontStyle=0;aspect=fixed;pointerEvents=1;shape=mxgraph.aws4.container_1;" parent="1" vertex="1">
          <mxGeometry x="446.68999999999994" y="428.25" width="48" height="31" as="geometry" />
        </mxCell>
        <mxCell id="vO1gcMTNo6GiHxiWaRdK-75" value="userdetails" style="sketch=0;outlineConnect=0;fontColor=#232F3E;gradientColor=none;fillColor=#ED7100;strokeColor=none;dashed=0;verticalLabelPosition=bottom;verticalAlign=top;align=center;html=1;fontSize=12;fontStyle=0;aspect=fixed;pointerEvents=1;shape=mxgraph.aws4.container_1;" parent="1" vertex="1">
          <mxGeometry x="208" y="428.25" width="48" height="31" as="geometry" />
        </mxCell>
        <mxCell id="vO1gcMTNo6GiHxiWaRdK-81" value="" style="edgeStyle=orthogonalEdgeStyle;curved=1;rounded=0;orthogonalLoop=1;jettySize=auto;html=1;exitX=1;exitY=0.5;exitDx=0;exitDy=0;exitPerimeter=0;" parent="1" source="vO1gcMTNo6GiHxiWaRdK-57" target="vO1gcMTNo6GiHxiWaRdK-72" edge="1">
          <mxGeometry x="0.7531" y="-5" relative="1" as="geometry">
            <mxPoint x="443" y="463.25" as="sourcePoint" />
            <mxPoint x="442" y="680.25" as="targetPoint" />
            <mxPoint as="offset" />
          </mxGeometry>
        </mxCell>
        <mxCell id="vO1gcMTNo6GiHxiWaRdK-82" value="" style="edgeStyle=orthogonalEdgeStyle;curved=1;rounded=0;orthogonalLoop=1;jettySize=auto;html=1;exitX=0.5;exitY=1;exitDx=0;exitDy=0;exitPerimeter=0;" parent="1" source="vO1gcMTNo6GiHxiWaRdK-57" target="vO1gcMTNo6GiHxiWaRdK-74" edge="1">
          <mxGeometry x="0.3307" y="-7" relative="1" as="geometry">
            <mxPoint x="477" y="427.25" as="sourcePoint" />
            <mxPoint x="651" y="698.25" as="targetPoint" />
            <mxPoint as="offset" />
            <Array as="points">
              <mxPoint x="478" y="353" />
            </Array>
          </mxGeometry>
        </mxCell>
        <mxCell id="vO1gcMTNo6GiHxiWaRdK-89" value="" style="edgeStyle=orthogonalEdgeStyle;curved=1;rounded=0;orthogonalLoop=1;jettySize=auto;html=1;exitX=0;exitY=0.5;exitDx=0;exitDy=0;exitPerimeter=0;" parent="1" source="vO1gcMTNo6GiHxiWaRdK-57" target="vO1gcMTNo6GiHxiWaRdK-75" edge="1">
          <mxGeometry x="0.7088" y="6" relative="1" as="geometry">
            <mxPoint x="443" y="463.25" as="sourcePoint" />
            <mxPoint x="228" y="401.25" as="targetPoint" />
            <mxPoint as="offset" />
          </mxGeometry>
        </mxCell>
        <mxCell id="vO1gcMTNo6GiHxiWaRdK-97" value="apikey" style="image;aspect=fixed;perimeter=ellipsePerimeter;html=1;align=center;shadow=0;dashed=0;spacingTop=3;image=img/lib/active_directory/database.svg;" parent="1" vertex="1">
          <mxGeometry x="182.69" y="745" width="50" height="37" as="geometry" />
        </mxCell>
        <mxCell id="vO1gcMTNo6GiHxiWaRdK-98" value="species" style="image;aspect=fixed;perimeter=ellipsePerimeter;html=1;align=center;shadow=0;dashed=0;spacingTop=3;image=img/lib/active_directory/database.svg;" parent="1" vertex="1">
          <mxGeometry x="420.18999999999994" y="739" width="50" height="37" as="geometry" />
        </mxCell>
        <mxCell id="vO1gcMTNo6GiHxiWaRdK-99" value="collectory" style="image;aspect=fixed;perimeter=ellipsePerimeter;html=1;align=center;shadow=0;dashed=0;spacingTop=3;image=img/lib/active_directory/database.svg;" parent="1" vertex="1">
          <mxGeometry x="300.69" y="745" width="50" height="37" as="geometry" />
        </mxCell>
        <mxCell id="vO1gcMTNo6GiHxiWaRdK-107" value="layersdb" style="image;aspect=fixed;perimeter=ellipsePerimeter;html=1;align=center;shadow=0;dashed=0;spacingTop=3;image=img/lib/active_directory/database.svg;" parent="1" vertex="1">
          <mxGeometry x="736.6899999999999" y="738" width="50" height="37" as="geometry" />
        </mxCell>
        <mxCell id="hRW7IxMo_JtO7I1gNGdK-2" style="edgeStyle=orthogonalEdgeStyle;curved=1;rounded=0;orthogonalLoop=1;jettySize=auto;html=1;exitX=1;exitY=0.5;exitDx=0;exitDy=0;exitPerimeter=0;" parent="1" source="hRW7IxMo_JtO7I1gNGdK-1" target="vO1gcMTNo6GiHxiWaRdK-58" edge="1">
          <mxGeometry relative="1" as="geometry">
            <mxPoint x="666.3100000000001" y="275.75" as="sourcePoint" />
            <mxPoint x="740" y="120" as="targetPoint" />
          </mxGeometry>
        </mxCell>
        <mxCell id="3lN89p1fmJUmsOhZlJN3-11" value="" style="endArrow=none;dashed=1;html=1;dashPattern=1 3;strokeWidth=2;rounded=0;opacity=50;" parent="1" edge="1">
          <mxGeometry width="50" height="50" relative="1" as="geometry">
            <mxPoint x="278" y="838" as="sourcePoint" />
            <mxPoint x="278" y="408" as="targetPoint" />
          </mxGeometry>
        </mxCell>
        <mxCell id="3lN89p1fmJUmsOhZlJN3-12" value="" style="endArrow=none;dashed=1;html=1;dashPattern=1 3;strokeWidth=2;rounded=0;entryX=0.312;entryY=-0.006;entryDx=0;entryDy=0;entryPerimeter=0;opacity=50;" parent="1" edge="1">
          <mxGeometry width="50" height="50" relative="1" as="geometry">
            <mxPoint x="368" y="838" as="sourcePoint" />
            <mxPoint x="370.68999999999994" y="408.25" as="targetPoint" />
          </mxGeometry>
        </mxCell>
        <mxCell id="3lN89p1fmJUmsOhZlJN3-13" value="" style="endArrow=none;dashed=1;html=1;dashPattern=1 3;strokeWidth=2;rounded=0;opacity=50;" parent="1" edge="1">
          <mxGeometry width="50" height="50" relative="1" as="geometry">
            <mxPoint x="518" y="838" as="sourcePoint" />
            <mxPoint x="518" y="408" as="targetPoint" />
          </mxGeometry>
        </mxCell>
        <mxCell id="3lN89p1fmJUmsOhZlJN3-16" value="" style="image;aspect=fixed;perimeter=ellipsePerimeter;html=1;align=center;shadow=0;dashed=0;spacingTop=3;image=img/lib/active_directory/database.svg;" parent="1" vertex="1">
          <mxGeometry x="386.68999999999994" y="579.25" width="50" height="37" as="geometry" />
        </mxCell>
        <mxCell id="vO1gcMTNo6GiHxiWaRdK-93" value="elasticsearch" style="sketch=0;outlineConnect=0;fontColor=#232F3E;gradientColor=none;fillColor=#ED7100;strokeColor=none;dashed=0;verticalLabelPosition=bottom;verticalAlign=top;align=center;html=1;fontSize=12;fontStyle=0;aspect=fixed;pointerEvents=1;shape=mxgraph.aws4.container_1;" parent="1" vertex="1">
          <mxGeometry x="386.68999999999994" y="579.25" width="48" height="31" as="geometry" />
        </mxCell>
        <mxCell id="3lN89p1fmJUmsOhZlJN3-18" value="" style="image;aspect=fixed;perimeter=ellipsePerimeter;html=1;align=center;shadow=0;dashed=0;spacingTop=3;image=img/lib/active_directory/database.svg;" parent="1" vertex="1">
          <mxGeometry x="460.68999999999994" y="582.25" width="50" height="37" as="geometry" />
        </mxCell>
        <mxCell id="3lN89p1fmJUmsOhZlJN3-19" value="" style="image;aspect=fixed;perimeter=ellipsePerimeter;html=1;align=center;shadow=0;dashed=0;spacingTop=3;image=img/lib/active_directory/database.svg;" parent="1" vertex="1">
          <mxGeometry x="520.6899999999999" y="582.25" width="50" height="37" as="geometry" />
        </mxCell>
        <mxCell id="vO1gcMTNo6GiHxiWaRdK-91" value="solr" style="sketch=0;outlineConnect=0;fontColor=#232F3E;gradientColor=none;fillColor=#ED7100;strokeColor=none;dashed=0;verticalLabelPosition=bottom;verticalAlign=top;align=center;html=1;fontSize=12;fontStyle=0;aspect=fixed;pointerEvents=1;shape=mxgraph.aws4.container_1;" parent="1" vertex="1">
          <mxGeometry x="487.69" y="580.3" width="60.31" height="38.95" as="geometry" />
        </mxCell>
        <mxCell id="3lN89p1fmJUmsOhZlJN3-24" value="geoserver" style="sketch=0;outlineConnect=0;fontColor=#232F3E;gradientColor=none;fillColor=#ED7100;strokeColor=none;dashed=0;verticalLabelPosition=bottom;verticalAlign=top;align=center;html=1;fontSize=12;fontStyle=0;aspect=fixed;pointerEvents=1;shape=mxgraph.aws4.container_1;" parent="1" vertex="1">
          <mxGeometry x="724.6899999999999" y="579.25" width="48" height="31" as="geometry" />
        </mxCell>
        <mxCell id="G3w2SAiwnS9QcViZ7NFC-21" value="ECS Service" style="sketch=0;outlineConnect=0;fontColor=#232F3E;gradientColor=none;fillColor=#ED7100;strokeColor=none;dashed=0;verticalLabelPosition=middle;verticalAlign=middle;align=left;html=1;fontSize=12;fontStyle=0;aspect=fixed;pointerEvents=1;shape=mxgraph.aws4.container_1;labelPosition=right;" parent="1" vertex="1">
          <mxGeometry x="1310" y="419.5" width="48" height="31" as="geometry" />
        </mxCell>
        <mxCell id="G3w2SAiwnS9QcViZ7NFC-22" value="" style="endArrow=none;dashed=1;html=1;dashPattern=1 3;strokeWidth=2;rounded=0;entryX=0;entryY=1;entryDx=0;entryDy=0;" parent="1" source="G3w2SAiwnS9QcViZ7NFC-21" target="G3w2SAiwnS9QcViZ7NFC-24" edge="1">
          <mxGeometry width="50" height="50" relative="1" as="geometry">
            <mxPoint x="1400" y="520" as="sourcePoint" />
            <mxPoint x="1460" y="560" as="targetPoint" />
          </mxGeometry>
        </mxCell>
        <mxCell id="G3w2SAiwnS9QcViZ7NFC-23" value="" style="endArrow=none;dashed=1;html=1;dashPattern=1 3;strokeWidth=2;rounded=0;entryX=0;entryY=0;entryDx=0;entryDy=0;" parent="1" source="G3w2SAiwnS9QcViZ7NFC-21" target="G3w2SAiwnS9QcViZ7NFC-24" edge="1">
          <mxGeometry width="50" height="50" relative="1" as="geometry">
            <mxPoint x="1342" y="461" as="sourcePoint" />
            <mxPoint x="1420" y="340" as="targetPoint" />
          </mxGeometry>
        </mxCell>
        <mxCell id="G3w2SAiwnS9QcViZ7NFC-24" value="" style="rounded=0;whiteSpace=wrap;html=1;fillColor=#ffe6cc;strokeColor=#d79b00;" parent="1" vertex="1">
          <mxGeometry x="1450" y="300" width="340" height="270" as="geometry" />
        </mxCell>
        <mxCell id="G3w2SAiwnS9QcViZ7NFC-25" value="Config Init" style="rounded=1;whiteSpace=wrap;html=1;verticalAlign=top;fillColor=#d5e8d4;strokeColor=#82b366;" parent="1" vertex="1">
          <mxGeometry x="1470" y="320" width="170" height="160" as="geometry" />
        </mxCell>
        <mxCell id="G3w2SAiwnS9QcViZ7NFC-26" value="Application" style="rounded=1;whiteSpace=wrap;html=1;fillColor=#d5e8d4;strokeColor=#82b366;" parent="1" vertex="1">
          <mxGeometry x="1650" y="357" width="120" height="60" as="geometry" />
        </mxCell>
        <mxCell id="G3w2SAiwnS9QcViZ7NFC-27" value="/config" style="shape=cylinder3;whiteSpace=wrap;html=1;boundedLbl=1;backgroundOutline=1;size=15;fillColor=#dae8fc;strokeColor=#6c8ebf;" parent="1" vertex="1">
          <mxGeometry x="1595" y="500" width="60" height="50" as="geometry" />
        </mxCell>
        <mxCell id="G3w2SAiwnS9QcViZ7NFC-28" value="/data" style="shape=cylinder3;whiteSpace=wrap;html=1;boundedLbl=1;backgroundOutline=1;size=15;fillColor=#dae8fc;strokeColor=#6c8ebf;" parent="1" vertex="1">
          <mxGeometry x="1710" y="500" width="60" height="50" as="geometry" />
        </mxCell>
        <mxCell id="G3w2SAiwnS9QcViZ7NFC-29" value="Github" style="dashed=0;outlineConnect=0;html=1;align=center;labelPosition=center;verticalLabelPosition=top;verticalAlign=bottom;shape=mxgraph.webicons.github;gradientColor=#DFDEDE" parent="1" vertex="1">
          <mxGeometry x="1489.8" y="160" width="102.4" height="102.4" as="geometry" />
        </mxCell>
        <mxCell id="G3w2SAiwnS9QcViZ7NFC-30" value="ECR" style="outlineConnect=0;dashed=0;verticalLabelPosition=top;verticalAlign=bottom;align=center;html=1;shape=mxgraph.aws3.ecr;fillColor=#F58534;gradientColor=none;labelPosition=center;" parent="1" vertex="1">
          <mxGeometry x="1675.5" y="190.4000000000001" width="69" height="72" as="geometry" />
        </mxCell>
        <mxCell id="G3w2SAiwnS9QcViZ7NFC-31" value="/config/&amp;lt;service&amp;gt;/*" style="shape=document;whiteSpace=wrap;html=1;boundedLbl=1;fillColor=#dae8fc;strokeColor=#6c8ebf;" parent="1" vertex="1">
          <mxGeometry x="1480" y="350" width="120" height="74" as="geometry" />
        </mxCell>
        <mxCell id="G3w2SAiwnS9QcViZ7NFC-32" value="vx.x.x" style="endArrow=classic;html=1;rounded=0;entryX=0.5;entryY=0;entryDx=0;entryDy=0;" parent="1" source="G3w2SAiwnS9QcViZ7NFC-29" target="G3w2SAiwnS9QcViZ7NFC-31" edge="1">
          <mxGeometry x="-0.3698" width="50" height="50" relative="1" as="geometry">
            <mxPoint x="1770" y="560" as="sourcePoint" />
            <mxPoint x="1820" y="510" as="targetPoint" />
            <mxPoint as="offset" />
          </mxGeometry>
        </mxCell>
        <mxCell id="G3w2SAiwnS9QcViZ7NFC-33" value="" style="endArrow=classic;html=1;rounded=0;entryX=0.145;entryY=0;entryDx=0;entryDy=4.35;exitX=0.5;exitY=0.872;exitDx=0;exitDy=0;exitPerimeter=0;entryPerimeter=0;" parent="1" source="G3w2SAiwnS9QcViZ7NFC-31" target="G3w2SAiwnS9QcViZ7NFC-27" edge="1">
          <mxGeometry width="50" height="50" relative="1" as="geometry">
            <mxPoint x="1551" y="272" as="sourcePoint" />
            <mxPoint x="1551" y="416" as="targetPoint" />
          </mxGeometry>
        </mxCell>
        <mxCell id="G3w2SAiwnS9QcViZ7NFC-34" value="" style="endArrow=classic;html=1;rounded=0;entryX=0.25;entryY=1;entryDx=0;entryDy=0;exitX=0.855;exitY=0;exitDx=0;exitDy=4.35;exitPerimeter=0;" parent="1" source="G3w2SAiwnS9QcViZ7NFC-27" target="G3w2SAiwnS9QcViZ7NFC-26" edge="1">
          <mxGeometry width="50" height="50" relative="1" as="geometry">
            <mxPoint x="1551" y="480" as="sourcePoint" />
            <mxPoint x="1551" y="600" as="targetPoint" />
          </mxGeometry>
        </mxCell>
        <mxCell id="G3w2SAiwnS9QcViZ7NFC-35" value="" style="endArrow=classic;startArrow=classic;html=1;rounded=0;entryX=0.75;entryY=1;entryDx=0;entryDy=0;exitX=0.5;exitY=0;exitDx=0;exitDy=0;exitPerimeter=0;" parent="1" source="G3w2SAiwnS9QcViZ7NFC-28" target="G3w2SAiwnS9QcViZ7NFC-26" edge="1">
          <mxGeometry width="50" height="50" relative="1" as="geometry">
            <mxPoint x="1980" y="620" as="sourcePoint" />
            <mxPoint x="2030" y="570" as="targetPoint" />
          </mxGeometry>
        </mxCell>
        <mxCell id="G3w2SAiwnS9QcViZ7NFC-36" value="vx.x.x" style="endArrow=classic;html=1;rounded=0;entryX=0.5;entryY=0;entryDx=0;entryDy=0;exitX=0.5;exitY=1;exitDx=0;exitDy=0;exitPerimeter=0;" parent="1" source="G3w2SAiwnS9QcViZ7NFC-30" target="G3w2SAiwnS9QcViZ7NFC-26" edge="1">
          <mxGeometry x="-0.4165" width="50" height="50" relative="1" as="geometry">
            <mxPoint x="1700" y="262.4000000000001" as="sourcePoint" />
            <mxPoint x="1700" y="406.4000000000001" as="targetPoint" />
            <mxPoint as="offset" />
          </mxGeometry>
        </mxCell>
        <mxCell id="G3w2SAiwnS9QcViZ7NFC-37" value="/config/&amp;lt;service&amp;gt;/*" style="shape=document;whiteSpace=wrap;html=1;boundedLbl=1;fillColor=#dae8fc;strokeColor=#6c8ebf;" parent="1" vertex="1">
          <mxGeometry x="1490" y="360" width="120" height="74" as="geometry" />
        </mxCell>
        <mxCell id="G3w2SAiwnS9QcViZ7NFC-38" value="/config/&amp;lt;service&amp;gt;/*" style="shape=document;whiteSpace=wrap;html=1;boundedLbl=1;fillColor=#dae8fc;strokeColor=#6c8ebf;" parent="1" vertex="1">
          <mxGeometry x="1500" y="370" width="120" height="74" as="geometry" />
        </mxCell>
        <mxCell id="G3w2SAiwnS9QcViZ7NFC-39" value="/config/&amp;lt;service&amp;gt;/*" style="shape=document;whiteSpace=wrap;html=1;boundedLbl=1;fillColor=#dae8fc;strokeColor=#6c8ebf;" parent="1" vertex="1">
          <mxGeometry x="1510" y="380" width="120" height="74" as="geometry" />
        </mxCell>
        <mxCell id="G3w2SAiwnS9QcViZ7NFC-41" value="Container" style="rounded=1;whiteSpace=wrap;html=1;verticalAlign=top;fillColor=#d5e8d4;strokeColor=#82b366;" parent="1" vertex="1">
          <mxGeometry x="1315" y="130" width="80" height="30" as="geometry" />
        </mxCell>
        <mxCell id="G3w2SAiwnS9QcViZ7NFC-42" value="EFS Volume" style="shape=cylinder3;whiteSpace=wrap;html=1;boundedLbl=1;backgroundOutline=1;size=15;fillColor=#dae8fc;strokeColor=#6c8ebf;" parent="1" vertex="1">
          <mxGeometry x="1320" y="170.5" width="70" height="60.5" as="geometry" />
        </mxCell>
        <mxCell id="G3w2SAiwnS9QcViZ7NFC-43" value="File" style="shape=document;whiteSpace=wrap;html=1;boundedLbl=1;fillColor=#dae8fc;strokeColor=#6c8ebf;" parent="1" vertex="1">
          <mxGeometry x="1320" y="88.5" width="65" height="30" as="geometry" />
        </mxCell>
        <mxCell id="G3w2SAiwnS9QcViZ7NFC-45" value="Legend" style="rounded=0;whiteSpace=wrap;html=1;labelPosition=center;verticalLabelPosition=middle;align=center;verticalAlign=top;fontStyle=1" parent="1" vertex="1">
          <mxGeometry x="30" y="70" width="90" height="256.75" as="geometry" />
        </mxCell>
        <mxCell id="G3w2SAiwnS9QcViZ7NFC-46" value="database" style="image;aspect=fixed;perimeter=ellipsePerimeter;html=1;align=center;shadow=0;dashed=0;spacingTop=3;image=img/lib/active_directory/database.svg;" parent="1" vertex="1">
          <mxGeometry x="49.00000000000002" y="176.75" width="50" height="37" as="geometry" />
        </mxCell>
        <mxCell id="G3w2SAiwnS9QcViZ7NFC-47" value="ECS Service" style="sketch=0;outlineConnect=0;fontColor=#232F3E;gradientColor=none;fillColor=#ED7100;strokeColor=none;dashed=0;verticalLabelPosition=bottom;verticalAlign=top;align=center;html=1;fontSize=12;fontStyle=0;aspect=fixed;pointerEvents=1;shape=mxgraph.aws4.container_1;" parent="1" vertex="1">
          <mxGeometry x="51" y="108" width="48" height="31" as="geometry" />
        </mxCell>
        <mxCell id="G3w2SAiwnS9QcViZ7NFC-48" value="" style="endArrow=none;dashed=1;html=1;dashPattern=1 3;strokeWidth=2;rounded=0;entryX=0.584;entryY=0.015;entryDx=0;entryDy=0;entryPerimeter=0;opacity=50;" parent="1" edge="1">
          <mxGeometry width="50" height="50" relative="1" as="geometry">
            <mxPoint x="800" y="888" as="sourcePoint" />
            <mxPoint x="800.1599999999999" y="412.0450000000001" as="targetPoint" />
          </mxGeometry>
        </mxCell>
        <mxCell id="G3w2SAiwnS9QcViZ7NFC-49" value="alerts" style="sketch=0;outlineConnect=0;fontColor=#232F3E;gradientColor=none;fillColor=#ED7100;strokeColor=none;dashed=0;verticalLabelPosition=bottom;verticalAlign=top;align=center;html=1;fontSize=12;fontStyle=0;aspect=fixed;pointerEvents=1;shape=mxgraph.aws4.container_1;" parent="1" vertex="1">
          <mxGeometry x="608" y="428.25" width="48" height="31" as="geometry" />
        </mxCell>
        <mxCell id="G3w2SAiwnS9QcViZ7NFC-50" value="doi-service" style="sketch=0;outlineConnect=0;fontColor=#232F3E;gradientColor=none;fillColor=#ED7100;strokeColor=none;dashed=0;verticalLabelPosition=bottom;verticalAlign=top;align=center;html=1;fontSize=12;fontStyle=0;aspect=fixed;pointerEvents=1;shape=mxgraph.aws4.container_1;" parent="1" vertex="1">
          <mxGeometry x="922" y="428" width="48" height="31" as="geometry" />
        </mxCell>
        <mxCell id="G3w2SAiwnS9QcViZ7NFC-51" value="images" style="image;aspect=fixed;perimeter=ellipsePerimeter;html=1;align=center;shadow=0;dashed=0;spacingTop=3;image=img/lib/active_directory/database.svg;" parent="1" vertex="1">
          <mxGeometry x="826.54" y="738" width="50" height="37" as="geometry" />
        </mxCell>
        <mxCell id="G3w2SAiwnS9QcViZ7NFC-52" value="logger" style="sketch=0;outlineConnect=0;fontColor=#232F3E;gradientColor=none;fillColor=#ED7100;strokeColor=none;dashed=0;verticalLabelPosition=bottom;verticalAlign=top;align=center;html=1;fontSize=12;fontStyle=0;aspect=fixed;pointerEvents=1;shape=mxgraph.aws4.container_1;" parent="1" vertex="1">
          <mxGeometry x="984" y="428.25" width="48" height="31" as="geometry" />
        </mxCell>
        <mxCell id="G3w2SAiwnS9QcViZ7NFC-53" value="images" style="sketch=0;outlineConnect=0;fontColor=#232F3E;gradientColor=none;fillColor=#7AA116;strokeColor=none;dashed=0;verticalLabelPosition=bottom;verticalAlign=top;align=center;html=1;fontSize=12;fontStyle=0;aspect=fixed;pointerEvents=1;shape=mxgraph.aws4.bucket;" parent="1" vertex="1">
          <mxGeometry x="832.31" y="823" width="38.46" height="40" as="geometry" />
        </mxCell>
        <mxCell id="G3w2SAiwnS9QcViZ7NFC-54" value="image-service" style="sketch=0;outlineConnect=0;fontColor=#232F3E;gradientColor=none;fillColor=#ED7100;strokeColor=none;dashed=0;verticalLabelPosition=bottom;verticalAlign=top;align=center;html=1;fontSize=12;fontStyle=0;aspect=fixed;pointerEvents=1;shape=mxgraph.aws4.container_1;" parent="1" vertex="1">
          <mxGeometry x="822.7700000000001" y="428.25" width="48" height="31" as="geometry" />
        </mxCell>
        <mxCell id="G3w2SAiwnS9QcViZ7NFC-55" value="" style="endArrow=none;dashed=1;html=1;dashPattern=1 3;strokeWidth=2;rounded=0;entryX=0.687;entryY=0.015;entryDx=0;entryDy=0;entryPerimeter=0;opacity=50;" parent="1" edge="1">
          <mxGeometry width="50" height="50" relative="1" as="geometry">
            <mxPoint x="898" y="888" as="sourcePoint" />
            <mxPoint x="902.1300000000001" y="412.0450000000001" as="targetPoint" />
          </mxGeometry>
        </mxCell>
        <mxCell id="G3w2SAiwnS9QcViZ7NFC-57" style="edgeStyle=orthogonalEdgeStyle;rounded=0;orthogonalLoop=1;jettySize=auto;html=1;exitX=0.5;exitY=1;exitDx=0;exitDy=0;" parent="1" source="G3w2SAiwnS9QcViZ7NFC-46" target="G3w2SAiwnS9QcViZ7NFC-46" edge="1">
          <mxGeometry relative="1" as="geometry" />
        </mxCell>
        <mxCell id="G3w2SAiwnS9QcViZ7NFC-58" value="downloads" style="sketch=0;outlineConnect=0;fontColor=#232F3E;gradientColor=none;fillColor=#7AA116;strokeColor=none;dashed=0;verticalLabelPosition=bottom;verticalAlign=top;align=center;html=1;fontSize=12;fontStyle=0;aspect=fixed;pointerEvents=1;shape=mxgraph.aws4.bucket;" parent="1" vertex="1">
          <mxGeometry x="922" y="823" width="38.46" height="40" as="geometry" />
        </mxCell>
        <mxCell id="G3w2SAiwnS9QcViZ7NFC-59" value="namematching" style="sketch=0;outlineConnect=0;fontColor=#232F3E;gradientColor=none;fillColor=#ED7100;strokeColor=none;dashed=0;verticalLabelPosition=bottom;verticalAlign=top;align=center;html=1;fontSize=12;fontStyle=0;aspect=fixed;pointerEvents=1;shape=mxgraph.aws4.container_1;" parent="1" vertex="1">
          <mxGeometry x="446.68999999999994" y="499.5" width="48" height="31" as="geometry" />
        </mxCell>
        <mxCell id="G3w2SAiwnS9QcViZ7NFC-60" value="doi" style="image;aspect=fixed;perimeter=ellipsePerimeter;html=1;align=center;shadow=0;dashed=0;spacingTop=3;image=img/lib/active_directory/database.svg;" parent="1" vertex="1">
          <mxGeometry x="916.23" y="744.75" width="50" height="37" as="geometry" />
        </mxCell>
        <mxCell id="G3w2SAiwnS9QcViZ7NFC-62" value="" style="edgeStyle=orthogonalEdgeStyle;curved=1;rounded=0;orthogonalLoop=1;jettySize=auto;html=1;exitX=1;exitY=0.5;exitDx=0;exitDy=0;exitPerimeter=0;" parent="1" source="vO1gcMTNo6GiHxiWaRdK-57" target="G3w2SAiwnS9QcViZ7NFC-50" edge="1">
          <mxGeometry x="0.8469" y="-12" relative="1" as="geometry">
            <mxPoint x="477" y="327" as="sourcePoint" />
            <mxPoint x="693" y="438" as="targetPoint" />
            <mxPoint as="offset" />
          </mxGeometry>
        </mxCell>
        <mxCell id="G3w2SAiwnS9QcViZ7NFC-63" value="" style="edgeStyle=orthogonalEdgeStyle;curved=1;rounded=0;orthogonalLoop=1;jettySize=auto;html=1;exitX=1;exitY=0.5;exitDx=0;exitDy=0;exitPerimeter=0;" parent="1" source="vO1gcMTNo6GiHxiWaRdK-57" target="G3w2SAiwnS9QcViZ7NFC-54" edge="1">
          <mxGeometry x="0.8101" y="-3" relative="1" as="geometry">
            <mxPoint x="477" y="327" as="sourcePoint" />
            <mxPoint x="890" y="438" as="targetPoint" />
            <mxPoint as="offset" />
          </mxGeometry>
        </mxCell>
        <mxCell id="G3w2SAiwnS9QcViZ7NFC-64" value="" style="edgeStyle=orthogonalEdgeStyle;curved=1;rounded=0;orthogonalLoop=1;jettySize=auto;html=1;exitX=1;exitY=0.5;exitDx=0;exitDy=0;exitPerimeter=0;" parent="1" source="vO1gcMTNo6GiHxiWaRdK-57" target="G3w2SAiwnS9QcViZ7NFC-52" edge="1">
          <mxGeometry x="0.8698" y="-4" relative="1" as="geometry">
            <mxPoint x="477" y="327" as="sourcePoint" />
            <mxPoint x="890" y="438" as="targetPoint" />
            <mxPoint as="offset" />
          </mxGeometry>
        </mxCell>
        <mxCell id="G3w2SAiwnS9QcViZ7NFC-65" value="" style="edgeStyle=orthogonalEdgeStyle;curved=1;rounded=0;orthogonalLoop=1;jettySize=auto;html=1;exitX=1;exitY=0.5;exitDx=0;exitDy=0;exitPerimeter=0;" parent="1" source="vO1gcMTNo6GiHxiWaRdK-57" target="G3w2SAiwnS9QcViZ7NFC-49" edge="1">
          <mxGeometry x="0.7077" y="-4" relative="1" as="geometry">
            <mxPoint x="477" y="327" as="sourcePoint" />
            <mxPoint x="982" y="438" as="targetPoint" />
            <mxPoint as="offset" />
          </mxGeometry>
        </mxCell>
        <mxCell id="G3w2SAiwnS9QcViZ7NFC-68" value="" style="endArrow=none;dashed=1;html=1;dashPattern=1 3;strokeWidth=2;rounded=0;" parent="1" edge="1">
          <mxGeometry width="50" height="50" relative="1" as="geometry">
            <mxPoint x="100" y="306.75" as="sourcePoint" />
            <mxPoint x="100" y="257.75" as="targetPoint" />
          </mxGeometry>
        </mxCell>
        <mxCell id="G3w2SAiwnS9QcViZ7NFC-69" value="Logical &lt;br&gt;Domain" style="text;html=1;align=center;verticalAlign=middle;whiteSpace=wrap;rounded=0;fontStyle=2" parent="1" vertex="1">
          <mxGeometry x="45" y="266.75" width="55" height="30" as="geometry" />
        </mxCell>
        <mxCell id="G3w2SAiwnS9QcViZ7NFC-70" value="" style="endArrow=none;dashed=1;html=1;dashPattern=1 3;strokeWidth=2;rounded=0;" parent="1" edge="1">
          <mxGeometry width="50" height="50" relative="1" as="geometry">
            <mxPoint x="48" y="306.75" as="sourcePoint" />
            <mxPoint x="48" y="257.75" as="targetPoint" />
          </mxGeometry>
        </mxCell>
        <mxCell id="G3w2SAiwnS9QcViZ7NFC-71" value="Authentication" style="text;html=1;align=center;verticalAlign=middle;whiteSpace=wrap;rounded=0;fontStyle=2;opacity=50;" parent="1" vertex="1">
          <mxGeometry x="201" y="668" width="55" height="30" as="geometry" />
        </mxCell>
        <mxCell id="G3w2SAiwnS9QcViZ7NFC-72" value="Collections" style="text;html=1;align=center;verticalAlign=middle;whiteSpace=wrap;rounded=0;fontStyle=2;opacity=50;" parent="1" vertex="1">
          <mxGeometry x="295.69" y="670.25" width="55" height="30" as="geometry" />
        </mxCell>
        <mxCell id="G3w2SAiwnS9QcViZ7NFC-73" value="Species" style="text;html=1;align=center;verticalAlign=middle;whiteSpace=wrap;rounded=0;fontStyle=2;opacity=50;" parent="1" vertex="1">
          <mxGeometry x="416.19" y="670.25" width="55" height="30" as="geometry" />
        </mxCell>
        <mxCell id="G3w2SAiwnS9QcViZ7NFC-74" value="Occurences" style="text;html=1;align=center;verticalAlign=middle;whiteSpace=wrap;rounded=0;fontStyle=2;opacity=50;" parent="1" vertex="1">
          <mxGeometry x="575" y="670.25" width="55" height="30" as="geometry" />
        </mxCell>
        <mxCell id="G3w2SAiwnS9QcViZ7NFC-75" value="Maps" style="text;html=1;align=center;verticalAlign=middle;whiteSpace=wrap;rounded=0;fontStyle=2;opacity=50;" parent="1" vertex="1">
          <mxGeometry x="717.69" y="670.25" width="55" height="30" as="geometry" />
        </mxCell>
        <mxCell id="G3w2SAiwnS9QcViZ7NFC-78" value="Images" style="text;html=1;align=center;verticalAlign=middle;whiteSpace=wrap;rounded=0;fontStyle=2;opacity=50;" parent="1" vertex="1">
          <mxGeometry x="819.2700000000001" y="670.25" width="55" height="30" as="geometry" />
        </mxCell>
        <mxCell id="G3w2SAiwnS9QcViZ7NFC-79" value="Downloads" style="text;html=1;align=center;verticalAlign=middle;whiteSpace=wrap;rounded=0;fontStyle=2;opacity=50;" parent="1" vertex="1">
          <mxGeometry x="922.0000000000001" y="670.25" width="55" height="30" as="geometry" />
        </mxCell>
        <mxCell id="G3w2SAiwnS9QcViZ7NFC-80" value="authorize" style="endArrow=classic;startArrow=classic;html=1;rounded=0;entryX=0.5;entryY=1;entryDx=0;entryDy=0;entryPerimeter=0;fontStyle=2;textOpacity=80;opacity=80;dashed=1;dashPattern=12 12;exitX=0.036;exitY=-0.009;exitDx=0;exitDy=0;exitPerimeter=0;" parent="1" source="vO1gcMTNo6GiHxiWaRdK-63" target="vO1gcMTNo6GiHxiWaRdK-55" edge="1">
          <mxGeometry x="0.6994" y="1" width="50" height="50" relative="1" as="geometry">
            <mxPoint x="200" y="306.75" as="sourcePoint" />
            <mxPoint x="1070" y="256.75" as="targetPoint" />
            <mxPoint as="offset" />
          </mxGeometry>
        </mxCell>
        <mxCell id="G3w2SAiwnS9QcViZ7NFC-81" value="authenticate" style="endArrow=classic;startArrow=classic;html=1;rounded=0;exitX=1;exitY=0.5;exitDx=0;exitDy=0;exitPerimeter=0;fontStyle=2;textOpacity=80;opacity=80;dashed=1;dashPattern=12 12;" parent="1" source="vO1gcMTNo6GiHxiWaRdK-55" target="vO1gcMTNo6GiHxiWaRdK-53" edge="1">
          <mxGeometry x="-0.3824" width="50" height="50" relative="1" as="geometry">
            <mxPoint x="210" y="316.75" as="sourcePoint" />
            <mxPoint x="210" y="171.75" as="targetPoint" />
            <mxPoint as="offset" />
          </mxGeometry>
        </mxCell>
        <mxCell id="G3w2SAiwnS9QcViZ7NFC-82" value="Running platform" style="text;html=1;align=center;verticalAlign=middle;whiteSpace=wrap;rounded=0;fontSize=18;fontStyle=5" parent="1" vertex="1">
          <mxGeometry x="448" y="10" width="172" height="30" as="geometry" />
        </mxCell>
        <mxCell id="G3w2SAiwnS9QcViZ7NFC-83" value="Single ECS Service" style="text;html=1;align=center;verticalAlign=middle;whiteSpace=wrap;rounded=0;fontSize=18;fontStyle=5" parent="1" vertex="1">
          <mxGeometry x="1534" y="10" width="172" height="30" as="geometry" />
        </mxCell>
        <mxCell id="_YDqgh8J1XpDga5V4mkn-2" value="" style="edgeStyle=orthogonalEdgeStyle;curved=1;rounded=0;orthogonalLoop=1;jettySize=auto;html=1;entryX=0.5;entryY=0;entryDx=0;entryDy=0;entryPerimeter=0;" parent="1" source="vO1gcMTNo6GiHxiWaRdK-53" target="hRW7IxMo_JtO7I1gNGdK-1" edge="1">
          <mxGeometry relative="1" as="geometry">
            <mxPoint x="424" y="148" as="sourcePoint" />
            <mxPoint x="425" y="297" as="targetPoint" />
          </mxGeometry>
        </mxCell>
        <mxCell id="hRW7IxMo_JtO7I1gNGdK-1" value="natuurdata.inbo.be" style="sketch=0;points=[[0,0,0],[0.25,0,0],[0.5,0,0],[0.75,0,0],[1,0,0],[0,1,0],[0.25,1,0],[0.5,1,0],[0.75,1,0],[1,1,0],[0,0.25,0],[0,0.5,0],[0,0.75,0],[1,0.25,0],[1,0.5,0],[1,0.75,0]];outlineConnect=0;fontColor=#232F3E;fillColor=#8C4FFF;strokeColor=#ffffff;dashed=0;verticalLabelPosition=top;verticalAlign=bottom;align=right;html=1;fontSize=12;fontStyle=0;aspect=fixed;shape=mxgraph.aws4.resourceIcon;resIcon=mxgraph.aws4.cloudfront;labelPosition=left;" parent="1" vertex="1">
          <mxGeometry x="402.19000000000005" y="180.75" width="60" height="60" as="geometry" />
        </mxCell>
      </root>
    </mxGraphModel>
  </diagram>
</mxfile>
